# xmcd
#
# Track frame offsets: 
#        150
#        14008
#        48235
#        66808
#        87980
#        111565
#        125900
#        144303
#        164968
#
# Disc length: 2410 seconds
#
# Revision: 4
# Processed by: cddbd v1.5.2PL0 Copyright (c) Steve Scherf et al.
# Submitted via: ExactAudioCopyFreeDBPlugin 1.0
#
DISCID=8a096809
DTITLE=Albert Collins - Don't Lose Your Cool
DYEAR=1983
DGENRE=Electric Texas Blues
TTITLE0=Albert Collins and The Ice Breakers - Get To Gettin'
TTITLE1=Albert Collins and The Ice Breakers - My Mind Is Trying To Leave
TTITLE1=Me
TTITLE2=Albert Collins and The Ice Breakers - Broke
TTITLE3=Albert Collins and The Ice Breakers - Don't Lose Your Cool
TTITLE4=Albert Collins and The Ice Breakers - When A Guitar Plays The Bl
TTITLE4=ues
TTITLE5=Albert Collins and The Ice Breakers - ... But I was Cool!
TTITLE6=Albert Collins and The Ice Breakers - Melt Down
TTITLE7=Albert Collins and The Ice Breakers - Ego Trip
TTITLE8=Albert Collins and The Ice Breakers - Quicksand
EXTD=YEAR: 1983
EXTT0=
EXTT1=
EXTT2=
EXTT3=
EXTT4=
EXTT5=
EXTT6=
EXTT7=
EXTT8=
PLAYORDER=
